<?xml version="1.0" encoding="UTF-8"?>
<svg width="90px" height="40px" viewBox="0 0 90 40" version="1.1" xmlns="http://www.w3.org/2000/svg" xmlns:xlink="http://www.w3.org/1999/xlink">
    <!-- Generator: Sketch 42 (36781) - http://www.bohemiancoding.com/sketch -->
    <title>Slice</title>
    <desc>Created with Sketch.</desc>
    <defs></defs>
    <g id="Page-1" stroke="none" stroke-width="1" fill="none" fill-rule="evenodd">
        <path d="M66.0491123,36.4656364 L63.1392804,33.364 L62.3605026,33.364 L59.4981415,36.4656364 L56.5883097,33.364 L55.8120979,33.364 L52.9471708,36.4656364 L50.0386219,33.364 L49.2611271,33.364 L46.3974831,36.4656364 L43.4876512,33.364 L42.7101564,33.364 L39.8465123,36.4656364 L36.9379634,33.364 L36.1591857,33.364 L33.2968246,36.4656364 L30.3882757,33.364 L29.6094979,33.364 L26.7458539,36.6756364 C26.7458539,36.6756364 23.4690855,33.4085455 23.4690855,33.1641818 C23.4690855,32.9185455 23.6345918,32.7009091 24.0438671,32.7009091 L69,32.7009091 L69,27.3872727 C69,24.2258182 66.585404,20.4636364 63.6396483,20.4636364 L59.4673497,21.4181818 L49.1392427,21.4181818 C32.5591027,18.1001818 31.4223694,12 23.1778457,12 C14.7293259,12 7.81270165,17.4358182 7.2225241,26.0636364 C7.22637309,26.7267273 7.18146827,26.9596364 7.18146827,27.3872727 C7.18146827,27.3872727 7.18146827,40 1,40 L68.998717,40 L68.998717,34.5412727 L68.998717,33.364 L66.0491123,36.4656364 M64.0348107,22.402 C64.8815871,22.402 65.7386276,22.8894545 65.7386276,23.8223636 C65.7386276,23.9967273 65.6051961,24.1405455 65.4422558,24.1405455 C65.2780325,24.1405455 65.145884,23.9967273 65.145884,23.8223636 C65.145884,23.284 64.5698194,23.0383636 64.0360937,23.0383636 C63.5010849,23.0383636 62.9250203,23.284 62.9250203,23.8223636 C62.9250203,23.9967273 62.7915888,24.1405455 62.6286485,24.1405455 C62.4657082,24.1405455 62.3322767,23.9967273 62.3322767,23.8223636 C62.3322767,22.8894545 63.1893172,22.402 64.0348107,22.402 M21.899983,19 C23.8745118,19 25.4885191,20.0958182 25.5975736,22.7507273 L18.2011094,22.7507273 C18.310164,20.0958182 19.9241712,19 21.899983,19" id="Shape" fill="#000000" fill-rule="nonzero"></path>
    </g>
</svg>