<svg viewBox="0 0 96 96" xmlns="http://www.w3.org/2000/svg"><g fill="none" fill-rule="evenodd"><path d="m0 0h96v96h-96v-96m81.932 91.89l-3.355-3.603h-.897l-3.301 3.603-3.356-3.603h-.895l-3.303 3.603-3.354-3.603h-.897l-3.301 3.603-3.356-3.603h-.896l-3.302 3.603-3.353-3.603h-.897l-3.301 3.603-3.354-3.603h-.897l-3.301 3.848c0 0-3.778-3.795-3.778-4.081 0-.285.19-.538.662-.538h51.833v-6.173c0-3.674-2.785-8.04-6.18-8.04l-4.81 1.109h-11.907c-19.12-3.855-20.427-10.943-29.933-10.943-9.74 0-17.716 6.316-18.395 16.34.004.771-.047 1.041-.047 1.538 0 0 0 14.655-7.127 14.655h78.4v-6.343-1.368l-3.401 3.603m-2.323-16.346c.976 0 1.964.567 1.964 1.651 0 .203-.153.369-.341.369-.19 0-.342-.167-.342-.369 0-.626-.664-.911-1.28-.911-.617 0-1.281.285-1.281.911 0 .203-.153.369-.341.369-.188 0-.341-.167-.341-.369-.001-1.084.988-1.651 1.964-1.651m-48.58-3.953c2.277 0 4.137 1.273 4.264 4.357h-8.528c.126-3.084 1.986-4.357 4.264-4.357" fill="#000"/></g></svg>