<svg viewBox="0 0 180 180" width="180px" height="180px" xmlns="http://www.w3.org/2000/svg"><g fill="none" fill-rule="evenodd"><path fill="#fec93e" d="m0 0h180v180h-180z"/><path d="m153.62 172.3l-6.29-6.756h-1.682l-6.189 6.756-6.292-6.756h-1.678l-6.193 6.756-6.289-6.756h-1.681l-6.19 6.756-6.292-6.756h-1.68l-6.191 6.756-6.288-6.756h-1.682l-6.189 6.756-6.289-6.756h-1.682l-6.19 7.215c0 0-7.084-7.116-7.084-7.651 0-.535.357-1.01 1.241-1.01h97.19v-11.575c0-6.888-5.221-15.08-11.588-15.08l-9.02 2.079h-22.325c-35.843-7.229-38.3-20.517-56.12-20.517-18.263 0-33.22 11.843-34.492 30.638.008 1.446-.088 1.952-.088 2.883 0 0 0 27.479-13.364 27.479h147v-11.893-2.565l-6.377 6.756m-4.355-30.648c1.829 0 3.683 1.063 3.683 3.095 0 .38-.287.693-.64.693-.355 0-.641-.312-.641-.693 0-1.174-1.244-1.709-2.4-1.709-1.156 0-2.403.535-2.403 1.709 0 .38-.287.693-.64.693-.353 0-.64-.312-.64-.693-.001-2.033 1.852-3.095 3.682-3.095m-91.09-7.411c4.27 0 7.758 2.387 7.994 8.17h-15.99c.237-5.783 3.724-8.17 7.995-8.17" fill="#000" fill-rule="nonzero"/></g></svg>
