<svg width="170px" height="36px" xmlns="http://www.w3.org/2000/svg" viewBox="0 0 170 36"><g fill="#000" fill-opacity=".4" fill-rule="evenodd"><path d="m46.67 4.548h2.045c.856 0 1.573-.503 1.573-1.552 0-1.07-.717-1.563-1.573-1.563h-2.045v3.115m2.162-3.982c1.392 0 2.462.824 2.462 2.43 0 1.595-1.07 2.419-2.462 2.419h-2.151v3.158h-.985v-8.01h3.136"/><path d="m53.927 5.844c0 1.274.814 2.033 1.873 2.033 1.06 0 1.873-.76 1.873-2.033 0-1.274-.813-2.024-1.873-2.024-1.059 0-1.873.749-1.873 2.024m4.678 0c0 1.734-1.22 2.836-2.805 2.836-1.584 0-2.804-1.102-2.804-2.836 0-1.735 1.221-2.827 2.804-2.827 1.585 0 2.805 1.092 2.805 2.827"/><path d="m65.84 8.574l-1.47-3.908-1.463 3.908h-.737l-2.08-5.46h1.01l1.46 3.966 1.48-3.966h.65l1.49 3.966 1.48-3.966h1l-2.08 5.46h-.74"/><path d="m71.11 5.448h3.297c-.021-.953-.556-1.627-1.595-1.627-.942 0-1.638.567-1.702 1.627m0 .749c.053 1.049.749 1.68 1.712 1.68.803 0 1.349-.364 1.531-.974l.921.054c-.225.985-1.167 1.723-2.43 1.723-1.563 0-2.708-1.06-2.708-2.836 0-1.777 1.134-2.827 2.687-2.827 1.563 0 2.505 1.06 2.505 2.676v.503h-4.217"/><path d="m80.29 3.938c-.974 0-1.584.664-1.584 1.499v3.137h-.921v-5.46h.9v.824c.192-.449.706-.889 1.606-.889v.889"/><path d="m82.932 5.448h3.297c-.021-.953-.557-1.627-1.595-1.627-.942 0-1.638.567-1.702 1.627m0 .749c.054 1.049.75 1.68 1.713 1.68.803 0 1.348-.364 1.53-.974l.921.054c-.225.985-1.167 1.723-2.43 1.723-1.563 0-2.709-1.06-2.709-2.836 0-1.777 1.134-2.827 2.687-2.827 1.563 0 2.505 1.06 2.505 2.676v.503h-4.218"/><path d="m90.18 5.844c0 1.316.792 2.033 1.831 2.033 1.01 0 1.756-.632 1.756-1.873v-.321c0-1.231-.749-1.863-1.756-1.863-1.038 0-1.831.717-1.831 2.024m3.64 2.73v-.889c-.31.567-1.01.995-1.937.995-1.499 0-2.633-1.07-2.633-2.826 0-1.767 1.134-2.837 2.633-2.837.91 0 1.584.396 1.884.921v-3.682h.921v8.318h-.867"/><path d="m101.96 5.683v.321c0 1.241.75 1.873 1.745 1.873 1.039 0 1.831-.717 1.831-2.033 0-1.306-.792-2.024-1.831-2.024-.995 0-1.745.632-1.745 1.863m-.01-1.745c.31-.524.974-.921 1.895-.921 1.499 0 2.634 1.07 2.634 2.837 0 1.756-1.135 2.826-2.634 2.826-.942 0-1.627-.428-1.937-.995v.889h-.878v-8.318h.921v3.682"/><path d="m17.677 35.7v-6.846c7.266 0 12.883-7.191 10.11-14.829-1.027-2.829-3.284-5.085-6.113-6.112-7.637-2.771-14.825 2.845-14.827 10.11 0 0-.001.002-.002.002h-6.844c0-11.574 11.182-20.587 23.311-16.801 5.3 1.655 9.512 5.866 11.167 11.167 3.786 12.13-5.226 23.311-16.801 23.311"/><path d="m108.9 11.303l1.29-3.03-2.17-5.16h1.03l1.64 4.121 1.64-4.121h1.03l-3.44 8.189h-1.02"/><path d="m17.693 28.871h-6.826v-6.824c0 0 .001-.001.001-.001h6.824c.001 0 .001.001.001.001v6.824"/><path d="m10.866 34.12h-5.243l-.001-.01v-5.239h5.245v5.239l-.001.01"/><path d="m5.625 28.871h-4.395c-.002 0-.003-.001-.003-.001v-4.393c0 0 .001-.003.003-.003h4.392c.002 0 .003.001.003.001v4.396"/><path d="m48.49 15.571h1.557c1.732 0 3.158.341 4.239 1.013 1.2.724 1.809 2.1 1.809 4.092 0 2.051-.61 3.49-1.813 4.277-1.036.685-2.453 1.032-4.213 1.032h-1.578v-10.415m7.858-1.022c-1.567-1.087-3.517-1.638-5.795-1.638h-4.96v15.735h4.96c2.273 0 4.223-.582 5.797-1.728.856-.607 1.529-1.457 2-2.523.468-1.061.706-2.312.706-3.718 0-1.39-.238-2.626-.706-3.671-.471-1.051-1.144-1.877-2-2.456"/><path d="m62.5 12.717c-.477 0-.887.169-1.218.5-.335.319-.504.723-.504 1.201 0 .477.169.887.502 1.221.333.333.743.503 1.22.503.476 0 .887-.169 1.221-.503.334-.334.503-.744.503-1.221 0-.477-.17-.881-.503-1.198-.333-.333-.744-.503-1.221-.503"/><path d="m61.08 28.647h2.792v-11.08h-2.792z"/><path d="m73.27 25.04c-.487.553-1.113.822-1.913.822-.8 0-1.422-.269-1.902-.821-.478-.55-.721-1.279-.721-2.168 0-.902.243-1.641.721-2.195.474-.548 1.114-.826 1.902-.826.799 0 1.425.27 1.913.828.486.554.732 1.292.732 2.194 0 .888-.246 1.617-.732 2.167m.732-6.545c-.841-.748-1.78-1.184-2.795-1.184-1.539 0-2.819.533-3.802 1.582-.996 1.041-1.502 2.38-1.502 3.981 0 1.565.497 2.9 1.48 3.97.991 1.036 2.277 1.561 3.824 1.561 1.075 0 1.999-.299 2.752-.891v.255c0 .92-.246 1.635-.732 2.126-.485.491-1.158.74-1.999.74-1.287 0-2.094-.506-3.076-1.833l-1.899 1.824.051.072c.41.576 1.038 1.139 1.868 1.675.83.533 1.872.804 3.099.804 1.656 0 2.995-.51 3.981-1.516.992-1.012 1.495-2.366 1.495-4.03v-10.06h-2.746v.926"/><path d="m79.13 28.647h2.79v-11.08h-2.79z"/><path d="m80.55 12.717c-.477 0-.887.169-1.218.5-.335.319-.504.723-.504 1.201 0 .477.169.887.502 1.221.333.333.743.503 1.22.503.476 0 .887-.169 1.221-.503.334-.334.503-.744.503-1.221 0-.477-.17-.881-.503-1.198-.333-.333-.744-.503-1.221-.503"/><path d="m88.03 14.57h-2.745v2.994h-1.594v2.542h1.594v4.604c0 1.44.288 2.471.856 3.063.569.594 1.58.896 3.01.896.453 0 .909-.015 1.355-.044l.126-.009v-2.54l-.956.05c-.664 0-1.107-.117-1.318-.346-.213-.233-.322-.727-.322-1.466v-4.208h2.596v-2.542h-2.596v-2.994"/><path d="m103.7 28.647h2.79v-15.736h-2.79z"/><path d="m134.67 24.684c-.499.559-1.01 1.044-1.402 1.296-.386.248-.872.373-1.446.373-.822 0-1.483-.299-2.02-.916-.535-.613-.807-1.401-.807-2.343 0-.942.268-1.729.796-2.337.531-.612 1.189-.91 2.01-.91.898 0 1.845.558 2.657 1.518l1.843-1.768c-1.202-1.564-2.735-2.292-4.565-2.292-1.531 0-2.859.558-3.945 1.657-1.081 1.091-1.629 2.482-1.629 4.132 0 1.65.547 3.044 1.627 4.143 1.08 1.1 2.408 1.658 3.946 1.658 2.02 0 3.649-.872 4.748-2.469l-1.813-1.742"/><path d="m140.02 21.721c.134-.53.379-.972.728-1.314.378-.372.87-.56 1.462-.56.676 0 1.199.192 1.555.572.33.352.516.79.555 1.302h-4.3m6.095-2.609c-.396-.551-.934-.994-1.601-1.319-.665-.324-1.44-.488-2.304-.488-1.557 0-2.831.575-3.787 1.708-.928 1.125-1.399 2.523-1.399 4.156 0 1.68.516 3.07 1.534 4.132 1.013 1.057 2.368 1.593 4.03 1.593 1.88 0 3.424-.76 4.587-2.261l.063-.08-1.82-1.748c-.169.203-.407.434-.626.64-.275.26-.534.461-.811.598-.417.208-.884.31-1.407.31-.773 0-1.413-.227-1.902-.675-.457-.419-.725-.985-.796-1.684h7.388l.025-1.018c0-.72-.098-1.414-.292-2.063-.194-.65-.49-1.256-.882-1.801"/><path d="m151.87 24.411c.316-.22.763-.331 1.329-.331.671 0 1.383.135 2.117.401v1.087c-.606.563-1.416.849-2.407.849-.483 0-.858-.107-1.116-.319-.253-.208-.376-.472-.376-.806 0-.38.148-.668.454-.88m4.952-6.02c-.845-.722-2.01-1.088-3.472-1.088-.928 0-1.795.204-2.581.602-.726.368-1.439.978-1.892 1.776l.028.034 1.786 1.709c.736-1.173 1.554-1.58 2.638-1.58.583 0 1.066.156 1.438.465.37.306.55.695.55 1.189v.538c-.692-.211-1.381-.317-2.052-.317-1.388 0-2.517.326-3.356.97-.849.652-1.28 1.584-1.28 2.772 0 1.041.363 1.887 1.082 2.516.725.606 1.631.915 2.693.915 1.062 0 2.055-.428 2.957-1.161v.913h2.746v-7.125c0-1.349-.432-2.402-1.283-3.129"/><path d="m168.83 18.61c-.777-.865-1.868-1.305-3.245-1.305-1.106 0-2 .318-2.677.945v-.686h-2.735v11.08h2.789v-6.112c0-.84.2-1.506.594-1.982.393-.475.934-.705 1.652-.705.632 0 1.11.206 1.464.63.355.426.535 1.013.535 1.745v6.425h2.789v-6.425c0-1.535-.392-2.75-1.165-3.612"/><path d="m95.25 24.411c.316-.22.763-.331 1.329-.331.672 0 1.383.135 2.117.401v1.087c-.606.563-1.416.849-2.407.849-.483 0-.858-.107-1.116-.319-.253-.208-.376-.472-.376-.806 0-.38.148-.668.454-.88m4.952-6.02c-.845-.722-2.01-1.088-3.472-1.088-.928 0-1.795.204-2.581.602-.726.368-1.439.978-1.892 1.776l.028.034 1.786 1.709c.736-1.173 1.554-1.58 2.638-1.58.583 0 1.066.156 1.438.465.369.306.549.695.549 1.189v.538c-.692-.211-1.381-.317-2.052-.317-1.388 0-2.517.326-3.356.97-.849.652-1.28 1.584-1.28 2.772 0 1.041.363 1.887 1.082 2.516.725.606 1.631.915 2.693.915 1.062 0 2.055-.428 2.957-1.161v.913h2.746v-7.125c0-1.349-.432-2.402-1.283-3.129"/><path d="m116.61 15.519c-2.897 0-5.253 2.356-5.253 5.253 0 2.897 2.356 5.253 5.253 5.253 2.897 0 5.253-2.356 5.253-5.253 0-2.897-2.356-5.253-5.253-5.253m0 13.365c-4.473 0-8.112-3.639-8.112-8.112 0-4.473 3.639-8.112 8.112-8.112 4.473 0 8.112 3.639 8.112 8.112 0 4.473-3.639 8.112-8.112 8.112"/></g></svg>