<svg width="65px" height="55px" viewBox="0 0 65 55" xmlns="http://www.w3.org/2000/svg" xmlns:xlink="http://www.w3.org/1999/xlink"><defs><path id="0" d="m0 0h65v55h-65z"/><mask id="1" fill="#fff"><use xlink:href="#0"/></mask></defs><g fill="none" fill-rule="evenodd"><use fill="#000" xlink:href="#0"/><path d="m55.701 52.22l-2.268-2.437h-.607l-2.231 2.437-2.268-2.437h-.605l-2.233 2.437-2.267-2.437h-.606l-2.232 2.437-2.268-2.437h-.606l-2.232 2.437-2.267-2.437h-.607l-2.231 2.437-2.267-2.437h-.607l-2.232 2.602c0 0-2.554-2.567-2.554-2.759 0-.193.129-.364.448-.364h35.04v-4.175c0-2.484-1.882-5.44-4.178-5.44l-3.252.75h-8.05c-12.923-2.607-13.809-7.4-20.235-7.4-6.585 0-11.976 4.271-12.436 11.05.003.521-.032.704-.032 1.04 0 0 0 9.91-4.818 9.91h53v-4.289-.925l-2.299 2.437m-1.57-11.05c.66 0 1.328.383 1.328 1.116 0 .137-.104.25-.231.25-.128 0-.231-.113-.231-.25 0-.423-.449-.616-.865-.616-.417 0-.866.193-.866.616 0 .137-.104.25-.231.25-.127 0-.231-.113-.231-.25 0-.733.668-1.116 1.327-1.116m-32.841-2.673c1.539 0 2.797.861 2.882 2.947h-5.765c.085-2.086 1.343-2.947 2.883-2.947" fill="#fec93e" fill-rule="nonzero" mask="url(#1)"/></g></svg>
