<svg width="268px" height="148px" viewBox="0 0 268 148" xmlns="http://www.w3.org/2000/svg" xmlns:xlink="http://www.w3.org/1999/xlink"><defs><path d="m38.461 66.19c1.936-.501 5.29-1.125 5.29-1.634 0-.823.198-5.548-1.114-7.213-.334-.424 3.363-.445 6.03-1.263-2.665.818-13.742 2.259-19.02 1.898-5.282-.36-9.717-10.82-8.763-16.502.245-1.458.063-3.971 0-5.774-.182-5.223-1.068-10.09-1.068-10.09l4.477-12.447 42.23 13.608-5.629 27.53c0 0-2.729 5.477.497 8.28 3.226 2.803 8.437 3.01 8.437 3.01 0 0 2.586 7.886-15.31 8.633-17.896.747-18.04-7.518-16.05-8.03" id="0"/><path d="m8.728.762c-.902 1-.2 1.825-.2 1.825.102.169.345.336.532.37 0 0 5.171 1.075 5.679-.974.508-2.049-5.109-2.225-6.01-1.221" id="1"/><path d="m.69.341c.818-.522 2.786 0 2.786 0l-.23 2.377c0 0-1.906.233-2.556-.372-.65-.605-.818-1.484 0-2.01" id="2"/><mask id="3" fill="#fff"><use xlink:href="#0"/></mask><mask id="4" fill="#fff"><use xlink:href="#1"/></mask><mask id="5" fill="#fff"><use xlink:href="#2"/></mask></defs><g fill="none" fill-rule="evenodd"><g stroke="#bbb" stroke-linejoin="round" stroke-linecap="round"><path d="m142 87.39c0 0 .268-16.964 11.1-19.863 4.651-1.245 10.685-.534 16.758-.886 8.07-.468 16.228-1.534 21.504.886 9.245 4.241 9.639 22.14 9.639 22.14l-5.795 30.33-49.548-1.206-3.657-31.405" fill="#bbb"/><g fill="#e6e6e6"><path d="m271 103.07c0 0-67.928.66-118.36.66-32.385 0-72.54-.66-93.62-.66l-62.3 50.16h274.28v-50.16"/><g transform="translate(59.02 104.08)"><path transform="matrix(.98481.17365-.17365.98481 6.287-9.348)" d="m52.22 17.878h28.51l-19.819 26.756h-28.508z"/><path transform="matrix(.98481.17365-.17365.98481 5.634-9.759)" d="m36.913 21.788l26.826-9.303 16.531 20.37-26.83 9.305"/><path transform="matrix(.98481.17365-.17365.98481 6.836-7.704)" d="m25.1 31.882l22.39-14.526 22.83 21.19-22.394 14.525-23.351-24.15"/><path transform="matrix(.98481.17365-.17365.98481 7.05-15.206)" d="M65.56 37.701 97.72 20.01 115.3 27.723 83.14 45.42z"/><path transform="matrix(.98481.17365-.17365.98481 9.406-25.306)" d="m128.59 56.53l13.36-26.14 28.12-4.723-13.37 26.14z"/><path transform="matrix(.98481.17365-.17365.98481 4.926-4.226)" d="M50.52 21.697 20.999 42.07 2.707 30.385 32.23 10.01z"/><path transform="matrix(.98481.17365-.17365.98481 6.52-24.03)" d="m136.24 11.867h28.51l-19.82 26.756h-28.5z"/><path transform="matrix(.98481.17365-.17365.98481 5.867-24.441)" d="m120.93 15.778l26.83-9.304 16.53 20.37-26.83 9.306"/><path transform="matrix(.98481.17365-.17365.98481 7.07-22.386)" d="m109.12 25.871l22.39-14.525 22.83 21.19-22.39 14.526-23.35-24.15"/><path transform="matrix(.98481.17365-.17365.98481 7.287-29.887)" d="m149.58 31.691l32.16-17.694 17.58 7.716-32.16 17.697z"/><path transform="matrix(.98481.17365-.17365.98481 5.159-18.907)" d="M134.54 15.686 105.02 36.06 86.73 24.374 116.25 4z"/></g></g><g transform="translate(193.37 70.31)"><path d="m31.712 59.897c-.306.14-.81.18-1.131.087l-26.484-7.65c-.319-.092-.575-.436-.572-.766l.015-1.834c.003-.331.263-.681.578-.781l46.857-14.903c.316-.101.779-.01 1.04.207l12.188 10.159c.258.215.217.504-.087.643l-32.404 14.837" fill="#e6e6e6"/><path fill="#bbb" d="m18.897 51.27l15.04 4.84 21.979-8.61-10.829-4.51z"/><path d="m31.1 58.34c.003.994.749 1.506 1.674 1.141l32.24-12.742c.921-.364 1.688-1.472 1.712-2.451l.746-30.639c.024-.99-.719-1.552-1.669-1.254l-33.11 10.402c-.946.297-1.71 1.341-1.707 2.338l.109 33.2" fill="#e6e6e6"/><path d="m3.834 49.23l27.2 8.336" fill="#bbb"/></g></g><g transform="translate(117 1)"><g stroke="#bbb" stroke-linejoin="round" stroke-linecap="round"><g fill="#e6e6e6"><path d="m1.637 132.03c5.563-6.814 15.939-18.515 19.727-24.564 3.788-6.05 2.788-20.754 2.788-20.754 0 0 3.991.661 8.388 5.677 0 0-.477 13.493-3.397 19.01-2.921 5.514-17.336 21.665-20.12 24.04-2.781 2.375-12.952 3.409-7.39-3.405"/><path d="m51.855 137.86c4.075-6.766 17.12-21.355 20.548-29.485 3.429-8.13 3.311-16.663 3.311-16.663.998-2.279 7.958-4.563 7.958-4.563 0 0-1.25 16.8-3.173 24.49-1.923 7.69-17.09 26.397-20.17 29.22-3.085 2.824-12.549 3.765-8.474-3"/></g><g fill="#bbb"><path d="m36.426 94.03c-1.699 4.105-12.88-2.479-14.218-4.735-1.338-2.256 4.112-14.512 7.03-17.6"/><path d="m78.66 69.975c2.618 1.724 6.816 17.16 6.816 17.16 0 0-6.834 6.785-10.82 6.785"/></g><use fill="#e6e6e6" xlink:href="#0"/></g><g mask="url(#3)"><g transform="translate(19.11 29.543)" stroke="#bbb" stroke-linejoin="round" stroke-linecap="round"><g fill="#e6e6e6"><path d="m2.742 18.17c0 0 4.543.23 5.451.769"/><use xlink:href="#1"/></g><ellipse fill="#bbb" mask="url(#4)" cx="10.279" cy="1.621" rx="1.623" ry="2.342"/><use fill="#e6e6e6" xlink:href="#2"/><ellipse fill="#bbb" mask="url(#5)" cx="2.633" cy="1.441" rx="1.443" ry="2.162"/></g></g><g stroke="#bbb" stroke-linejoin="round" stroke-linecap="round"><path d="m22.884 28.407c0 0-1.185 6.404-3.894 9.283-1.748 1.858 1.526 3.755 1.526 3.755l3.381.723c0 0 2.457.163 3.052-1.131.595-1.294.331-2.982-.785-3.44" fill="#e6e6e6"/><g fill="#bbb"><path d="m14.847 17.17c0 2.449 1.675 8.381 4.915 8.381 2.029 0 4.183-4.148 4.183-4.148 0 0 1.052 4.918 9.197 4.918 0 0 1.311 9.203 5.471 9.203 0 0-2.099-3.221-2.676-8.784.577 9.646 9.966 17.809 6.01 24.278 2.998-.375 5.263-4.622 5.263-4.622 0 0 0 3.073-2.254 7.07 11.01-6.072 9.07-21.16 9.07-21.16 0 0 2.851-3.705 6.286-.483 3.435 3.221-3.288 10.243-4.341 11.645-1.053 1.402.259 4.759 1.887 6.444 1.628 1.685 5.76 3.919 5.76 3.919 11.491 8.754 16.392 6.925 23.8 15.176 1.149-22.95-.559-32.61-3.928-37.18-3.749-5.089-9.388-3.708-11.957-3.708 0 0 .804-29.21-26.583-28.04-27.387 1.175-30.1 14.647-30.1 17.1"/><path d="m54.21 134.2c0 0 5.285-5.669 10.154 1.697 3.741-.402 3.741-3.926 3.741-3.926 0 0-5.287-6.495-10.794-2.254-2.74 1.894-3.101 4.483-3.101 4.483"/></g></g></g><g transform="translate(-2.496 37.36)"><g stroke="#bbb"><path d="m37.22 106.51l1.108-18.875-16.475-44.86 46.667-27.08 3.618 3.794 3.368-.261.156 1.396-10.615 3.281-38.17 22.945 14.952 40.453-2.786 18.974-.327-19.47h2.171c0 0-9.28-24.823-14.61-39.1-.463-1.239-1.494-.633-1.894-1.72-.366-.995-.497-2.984-.497-2.984l1.936 2.02 40.43-23.362.398-2.864-42.759 24.21.591 4.604 14.3 39.21-.07 20.726-1.49-1.022" stroke-linecap="round" stroke-linejoin="round" fill="#bbb"/><path d="m66.817 18.213c1.154-2.793-1.674-7.149-.953-9.643.721-2.494 2.67-4.226 4.676-3.229 2.01.998 1.439 4.625 2.786 6.74 1.347 2.115 3.635 3.339 3.635 3.339" stroke-width=".9"/><g stroke-linejoin="round" stroke-linecap="round"><path d="m85.24 30.532c6.463 0 12.919-.78 12.919-2.108 0-1.328-6.507-2.404-12.971-2.404-6.463 0-11.481 1.408-11.481 2.736 0 1.328 5.07 1.776 11.533 1.776" fill="#e6e6e6" transform="matrix(.76604-.64279.64279.76604 1.929 61.85)"/><path d="m73.72 21.13c0 0-2.589-11.305-1.765-13.637.824-2.332 7.793-2.781 8.541-1.034.748 1.747 2.37 12.521 2.37 12.521l9.317 8.387c0 0-6.762.12-12.613 1.265-5.85 1.145-11.131 3.651-11.131 3.651l5.281-11.153" fill="#bbb" transform="matrix(.86603-.5.5.86603 1.342 42.679)"/></g></g><ellipse fill="#bbb" cx="39.31" cy="107.29" rx="17.405" ry="4.508"/></g><g transform="translate(203.66 121.51)" stroke-linecap="round" stroke="#bbb" stroke-linejoin="round"><path d="m.072 19.709c-.015-.164.083-.375.219-.47 0 0 7.42-5.273 14.319-9.32 6.899-4.046 14.207-7.411 14.207-7.411.144-.067.396-.151.561-.187 0 0 15.245-3.442 21.96-1.695 6.715 1.747 7.228 6.881 8.446 10.331 1.218 3.45.806 11.5 0 15.425-.806 3.926-2.706 10.207-4.045 12.1-1.339 1.894-5.415 1.701-5.415 1.701-.161-.003-.321-.129-.362-.295l-1.968-8.101c-.039-.159-.172-.21-.319-.108 0 0-1.526 1.354-8.575 3.336-7.05 1.982-9.612 2.171-18.709 4.726-9.1 2.556-12.896 4.121-12.896 4.121-.15.06-.378.195-.502.297l-3.213 2.637c-.127.104-.262.063-.305-.104l-1.712-6.656c-.042-.162.036-.373.166-.466l4.01-2.876c.133-.096.224-.302.2-.477l-1.167-8.509c-.023-.168-.15-.365-.302-.451l-3.855-2.184c-.144-.082-.273-.284-.288-.444l-.454-4.921" fill="#e6e6e6"/><path d="m7.974 20.822c0 0 11.253-7.873 11.872-8.603.619-.73 1.088 1.86 1.088 1.86 0 0-12.589 8.127-12.589 9.03 0 .899-.371-2.283-.371-2.283" fill="#bbb"/><g fill="#e6e6e6"><path d="m51.613.839c0 0-21.03 9.454-28.604 7.367-7.569-2.087-8.918 13.808 2.347 13.808 11.265 0 20.306-8.714 28.987-4.871 8.681 3.844 5.594-3.359 4.709-8.937-.885-5.578-7.439-7.367-7.439-7.367"/><path d="m46.03 4.255c0 0 5.106 8.458 2.553 12.157-2.553 3.699-8.711-9.974-11.662-10.587-2.951-.613-4 3.433-2.032 13.163 1.968 9.73-11.989-8.833-8.03-11.396 3.96-2.563 7.64 11.362 12.12 11.362 4.48 0-2.39-12.366 2.663-14.395 5.05-2.029 10.438 11.584 10.438 11.584"/></g></g><g stroke="#bbb" stroke-linejoin="round" stroke-linecap="round"><g transform="translate(61.721 61.4)"><path d="m8.159 36.22l6.108-1.148c0 0 15.183.848 16.873.186l-3.687-2.984c0 0-5.77-15.09-5.77-18.637l-5.229-.126c0 0-5.03 18.453-5.675 19.556-.649 1.103-2.621 3.154-2.621 3.154" fill="#e6e6e6"/><path fill="#bbb" d="m16.518 13.411l-2.165 19.809-.436 1.97"/><path fill="#e6e6e6" d="m10.924 35.746l.076 7.314 4.694-.202 11.496-.042.539-7.328-13.771-.358z"/><g fill="#bbb"><path d="m12.499 35.501v2.485l.866-.013-.157-2.673z"/><path d="m20.354 35.439l.006 2.385 2.53-.017v-2.487z"/><path d="m13.764 43l.009 8.16 1.14-.01-.133-8.312z"/><path d="m20.666 43l.009 8.16 1.14-.01-.134-8.312z"/><path d="m23.666 43l.01 8.16 1.139-.01-.133-8.312z"/><path d="m16.16 43l.01 8.16 1.143-.01-.133-8.312z"/><path d="m9.784 51.13l18.765.01v1.14h1.866v1.28l-17.882.376-5.314-.386.078-1.22 2.55-.13z"/><path d="m12.243 44.853l3.767.078 2.935.239-.208.511-3.135-.052-1.899.046-1.371-.163z"/><path d="m19.589 44.776l3.511.085 3.211.359-.857.6h-1.82l-3.454-.235-.516-.165z"/><path d="m14.04 14.237l2.1.365.372-1.031.31-1.611-.13 1.709 4.559-.052.062-1.497.15 1.537.537.581 1.632.101-1.512.443-5.935.004z"/></g></g><g transform="translate(62.62 125.72)" fill="#e6e6e6"><path d="m1.4 16.556c0 0-.749-7.928.286-10.06 1.036-2.13 4.676-3.382 6.106-3.382 1.429 0 20.474 3.1 21.591 4.04 1.117.936 1.885 2.253 1.885 5.325 0 3.072.173 9.508-.365 9.89-.537.382-1.67 2.173-3.23 2.173-1.56 0-11.12-.526-13.228-2.173-2.11-1.647-13.04-5.812-13.04-5.812"/><path d="m1.187 16c0 0 5.818-5.863 9.606-6.93 3.787-1.067 7.627.209 8.536 1.031.908.822 4.422 4.444 3.513 8.955-.909 4.511-4.303 6.916-8.226 8.728-3.923 1.812-8.03 2.276-10.341.381-2.312-1.895-4.526-4.145-4.162-7.863.365-3.718 1.074-4.303 1.074-4.303"/><ellipse transform="matrix(.86603-.5.5.86603-9.915 6.275)" cx="6.752" cy="21.639" rx="4.051" ry="4.809"/><path d="m12.503 4.09c-1.162 1.346-1.835 2.639-1.05 3.161.784.522 5.773 1.128 6.991.733 1.218-.394 6.095-2.569 7.637-1.894 1.541.675.317-4.03-1.722-4.414-2.039-.388.009-1.269.009-1.269l-6.714-.339c0 0-3.989 2.676-5.15 4.02"/><path d="m24.867 11.636c-.041-.324.191-.554.526-.514 0 0 2 .258 2.78.258.775 0 .432.867.432.867-.069.328-.379.688-.692.798 0 0-2.958 1.172-2.958.116 0-1.056-.089-1.525-.089-1.525"/></g></g><path d="m247.48 103.96c-.01-.018-.01-.029-.019-.037-.019-.037-.029-.077-.048-.113-.029-.077-.058-.121-.077-.168-.01-.007-.01-.018-.019-.026-.019-.037-.038-.062-.058-.099-.01-.007-.019-.026-.019-.037-.029-.033-.048-.07-.077-.103-.029-.033-.058-.067-.086-.1-.01-.007-.019-.015-.029-.022-.019-.026-.048-.048-.067-.063-.01-.007-.019-.015-.019-.026-.029-.022-.058-.056-.096-.075-.01-.007-.019-.015-.029-.012-.029-.012-.048-.037-.077-.049l-.029-.022c-.029-.012-.058-.034-.086-.046-.048-.016-.086-.035-.115-.047-.01-.007-.029-.012-.038-.008-.029-.012-.048-.016-.077-.027-.01-.007-.029-.001-.038-.008-.038-.008-.067-.02-.105-.018-.01-.007-.029-.001-.038-.008-.029-.001-.048-.005-.077-.006-.019-.004-.029-.001-.048-.005-.029-.001-.058-.002-.086-.003-.019-.004-.038.002-.048-.005-.029-.001-.058-.002-.086.008-.019.007-.038.002-.048.006-.019-.004-.048.006-.067.012-.019.007-.038.002-.048.006-.038.002-.067.012-.105.015-.019.007-.038.013-.058.009-.019.007-.048.017-.067.012l-.058.02-.067.023-.086.03-.067.023-.058.02c-.019.007-.038.013-.058.031-.019.007-.038.013-.058.031-.038.013-.067.034-.105.058-.403.216-.796.525-1.132.912-.048-.276-.115-.512-.211-.706.067-.132.316-.435 1.18-.842 1.247-.617 1.036-2.427 1.036-2.427 0 0-.46.484-1.228.891-.719.38-1.218 1.343-1.084 2.238-.518-.87-1.458-.771-1.458-.771-.096.163-.105.361-.105.361 1.113.101 1.573.785 1.765 1.26-.259-.127-1.573-.688-3.117.908-1.707 1.772-1.506 7.05 2.733 5.719l.144-.05c3.472-1.183 4.671-4.5 4.076-6.502-.019-.058-.038-.106-.058-.164" fill="#bbb"/><g stroke="#bbb" stroke-linejoin="round" stroke-linecap="round"><path d="m99.53 141.04l16.504 4.208" stroke-width="3"/><path d="m56.819 110.02c-1.668-.623-3.552-1.071-5.653-1.342-4.217-.559-7.441.008-9.67 1.702l.794-.12 1.251-.431-1.082 1.031 2.333-1.438-1.684 1.438 2.526-1.51-1.612 1.63 2.285-1.63-1.515 1.989 2.237-1.917-1.155 1.845 1.636-1.558-.601 1.63 1.203-1.51-.313 1.198.794-1.079-.241 1.27 1.01-1.031-.481 1.031 1.034-.959-.313.887.962-.887v.839l.962-.911v.791l2.718-.12c-1.604.24-3.327.759-5.172 1.558-3.672 1.614-6.078 3.851-7.216 6.711l-.433 1.558 1.443-2.876-.649 2.205 1.564-2.756-.722 2.588 1.251-2.588-.361 2.037.842-2.804.072 2.445.409-2.445.12 1.965.313-2.325.649 1.917v-2.349l.553 1.869.241-1.917.409 1.366.313-2.037.409 1.222 1.636-1.63.481.36c-.722.655-1.459 1.582-2.213 2.78-1.491 2.381-2.277 4.929-2.357 7.645l.241.959.481-2.996.289 1.845.12-3.355.553 2.469v-2.588l.842 1.75-.481-2.636 1.924 1.678-1.155-2.277 1.515 1.438-.674-2.828 1.323 1.63-.649-2.277 1.203 1.126-.553-1.678 1.034 1.318-.433-1.798.794.959-.241-1.965 1.323.959-.481-1.558.842.36-.12-1.198h.529l-.12-.839.842-.36.722-.431c-.738 1.182-1.307 2.692-1.708 4.53-.818 3.675-.409 7.158 1.227 10.45l.914.671-.842-2.229 1.203.911-1.323-1.989 1.371.839c-.273-.352-.529-.703-.77-1.055-.497-.671-.698-.975-.601-.911l1.564 1.198-1.756-1.989 1.996.671c-.385-.224-.762-.455-1.131-.695-.722-.463-1.026-.695-.914-.695.192 0 .914.264 2.165.791l-2.405-1.558 2.526.767-2.165-1.246 2.045.767c-.401-.272-.794-.535-1.179-.791-.754-.543-1.066-.815-.938-.815.208 0 .89.176 2.045.527-.401-.24-.786-.479-1.155-.719-.738-.479-1.05-.719-.938-.719.192 0 .954.144 2.285.431l-1.996-1.438 2.598.839-2.526-2.037 2.526 1.198-1.924-1.63 2.045.551c-.353-.288-.706-.575-1.058-.863-.674-.575-.962-.871-.866-.887.16-.032.762.032 1.804.192l-1.804-1.39 1.323.12-1.034-.887 1.443.288-1.131-1.031.577.168c.481.288.978.863 1.491 1.726 1.652 2.748 3.151 7.853 4.498 15.315l.457 4.889c.273 3.627.377 6.391.313 8.293l3.199.12c-.112-2.7-.377-5.704-.794-9.01-.85-6.631-2.069-11.48-3.656-14.548l-3.319-6.471.241.216c.208.176.409.391.601.647.321.399.601.583.842.551l.072.839.481-.671-.024 1.15.553-.599-.072 1.198.625-1.198-.313 1.606.674-1.318-.313 1.678.842-1.366-.289 2.085.722-1.678-.313 1.798.794-1.606-.313 1.917.722-1.27-.048 1.917.601-1.246-.12 1.606.649-1.486-.048 1.917.649-1.079v1.198l.361-.911.553.599c.144-.527-.048-1.278-.577-2.253-1.074-1.917-3.287-3.939-6.639-6.06l.962-.312.722.695.048-.336.433.503.12-.671.409 1.079.12-1.031.553 1.318.168-1.079.313 1.39.168-1.438.241 1.486.553-1.246.168 1.366.433-1.366.12 1.438.409-.959.12.887.481-1.079.361 1.318.241-1.246.553 1.318.481-1.079.649 1.126c.128-.623-.152-1.254-.842-1.893-1.395-1.278-4.161-1.941-8.299-1.989l1.564-1.031.553.479.89-.839.024.959 1.179-1.366-.192 1.318 1.155-.959-.289 1.079.601-1.27.241.839.409-1.079.313.839.361-1.01.601.839.168-.719.433.767.289-.887.553.647.12-.767.409.527.553-.839.241.599.962-.959c-1.507-.415-3.231-.615-5.172-.599-3.849.048-6.823 1.166-8.924 3.355" fill="#bbb" transform="matrix(-1 0 0 1 112.34 0)"/></g></g></svg>
